# xmcd CD database file
#
# Track frame offsets:
#	150
#	15550
#	31130
#	53759
#	65741
#	80283
#	96304
#	111061
#	126324
#	143234
#	154530
#	165780
#	177715
#	203508
#	220416
#
# Disc length: 3157 seconds
#
# Revision: 0
# Processed by: cddbd v1.5.2PL0 Copyright (c) Steve Scherf et al.
# Submitted via: CDex 1.70beta2
#
DISCID=c60c530f
DTITLE=Rendezvous - Rendezvous
DYEAR=2004
DGENRE=Blues
TTITLE0=Lets kill saturday night
TTITLE1=God save the queen
TTITLE2=How much more
TTITLE3=Devil in disguise
TTITLE4=Promised land
TTITLE5=Rainy day women
TTITLE6=I'm so happy
TTITLE7=One ugly child
TTITLE8=Closed rooms to my heart
TTITLE9=Three steps to heaven
TTITLE10=Rock'n'roll guitars
TTITLE11=No particular place to go
TTITLE12=Ruby's arma
TTITLE13=At the dark end of the street
TTITLE14=M/S Colinda
EXTD=YEAR: 2004
EXTT0=
EXTT1=
EXTT2=
EXTT3=
EXTT4=
EXTT5=
EXTT6=
EXTT7=
EXTT8=
EXTT9=
EXTT10=
EXTT11=
EXTT12=
EXTT13=
EXTT14=
PLAYORDER=
